<svg width="100" height="18" viewBox="0 0 100 18" fill="none" xmlns="http://www.w3.org/2000/svg">
<path d="M3.671 17.7362L5.918 11.0582L0.5 7.42516H7.136L9.509 0.26416L11.924 7.42516H18.518L13.1 11.0582L15.389 17.7362L9.509 13.4732L3.671 17.7362Z" fill="#FFC200"/>
<path d="M24.0402 17.7362L26.2872 11.0582L20.8692 7.42516H27.5052L29.8782 0.26416L32.2932 7.42516H38.8872L33.4692 11.0582L35.7582 17.7362L29.8782 13.4732L24.0402 17.7362Z" fill="#FFC200"/>
<path d="M44.4094 17.7362L46.6564 11.0582L41.2384 7.42516H47.8744L50.2474 0.26416L52.6624 7.42516H59.2564L53.8384 11.0582L56.1274 17.7362L50.2474 13.4732L44.4094 17.7362Z" fill="#FFC200"/>
<path d="M64.7785 17.7362L67.0255 11.0582L61.6075 7.42516H68.2435L70.6165 0.26416L73.0315 7.42516H79.6255L74.2075 11.0582L76.4965 17.7362L70.6165 13.4732L64.7785 17.7362Z" fill="#FFC200"/>
<path d="M85.1477 17.7362L87.3947 11.0582L81.9767 7.42516H88.6127L90.9857 0.26416L93.4007 7.42516H99.9947L94.5767 11.0582L96.8657 17.7362L90.9857 13.4732L85.1477 17.7362Z" fill="#FFC200"/>
</svg>
