<svg width="234" height="50" viewBox="0 0 234 50" fill="none" xmlns="http://www.w3.org/2000/svg">
<path d="M40.672 31.81C35.726 31.1918 31.3919 33.4584 28.1795 36.4462C31.7233 34.3599 36.2104 32.6857 40.1876 33.8963C43.7569 34.875 46.128 38.9961 44.4708 42.3702C41.7428 47.908 34.3238 46.1307 30.3211 42.9111C25.1201 38.6613 21.041 33.0205 13.8259 30.96C8.85438 29.5691 2.48065 31.5782 0.594031 36.8841C-1.52205 42.0612 2.30219 48.011 7.52865 48.7837C12.4747 49.4018 16.8088 47.1095 20.0212 44.1475C16.4774 46.2338 11.9903 47.908 8.03855 46.6974C4.46926 45.7186 2.12373 41.5975 3.7554 38.2234C5.33609 34.9008 9.41527 33.922 12.7806 35.0038C20.8115 37.4249 25.681 47.6761 34.4258 49.5306C39.2953 50.9988 45.7965 49.0155 47.6322 43.6838C49.7737 38.5325 45.924 32.5569 40.723 31.81H40.672Z" fill="#C3AA45"/>
<path d="M24.0749 21.8164C14.5143 20.2452 14.7693 4.40476 24.0749 4.40476C33.3551 4.40476 33.61 20.2452 24.0749 21.8164C26.5224 22.3315 29.3269 21.3527 31.2645 19.4467C37.9186 12.9303 34.0944 -0.0769276 24.0749 0.000342747C10.0017 0.0260995 10.2567 22.9754 24.0749 21.8164Z" fill="#C3AA45"/>
<path d="M46.5869 7.00619C38.1481 29.5691 10.6391 30.3676 1.61389 7.77889C2.0728 13.1621 4.34185 18.6998 8.574 22.6663C22.3922 36.0083 45.7966 26.0405 46.5614 7.00619H46.5869Z" fill="#C3AA45"/>
<path d="M62.7507 23.3875C63.3371 22.589 63.643 21.4557 63.643 20.1422V8.88643C63.643 7.57284 63.3371 6.43954 62.7507 5.64108V5.5123H68.2321V5.64108C67.6457 6.43954 67.3398 7.57284 67.3398 8.88643V13.9348H74.8353V8.88643C74.8353 7.57284 74.5293 6.43954 73.9429 5.64108V5.5123H79.4244V5.64108C78.838 6.43954 78.532 7.57284 78.532 8.88643V20.1679C78.532 21.4815 78.838 22.6148 79.4244 23.4133V23.542H73.9429V23.4133C74.5293 22.6148 74.8353 21.4815 74.8353 20.1679V14.5787H67.3398V20.1679C67.3398 21.4815 67.6457 22.6148 68.2321 23.4133V23.542H62.7507V23.3875Z" fill="#434142"/>
<path d="M81.209 23.5163V23.3875C81.6679 22.7178 81.9229 21.6618 81.9229 20.477V14.7075C81.9229 13.2393 81.5914 12.4666 81.0051 11.8742V11.7454L85.2372 10.3031H85.3647V13.8317H85.4921C86.0275 11.6939 87.2768 10.3031 89.9538 10.3031V13.5227H88.4751C86.3845 13.5227 85.3647 14.2954 85.3647 16.4589V20.477C85.3647 21.6618 85.6196 22.7178 86.0785 23.3875V23.5163H81.209Z" fill="#434142"/>
<path d="M90.7951 23.5163V23.3875C91.254 22.7178 91.509 21.6618 91.509 20.477V14.7075C91.509 13.2393 91.1775 12.4666 90.5911 11.8742V11.7454L94.8233 10.3031H94.9508V20.477C94.9508 21.6618 95.2057 22.7178 95.6646 23.3875V23.5163H90.7951ZM91.1775 6.77438C91.1775 5.61532 92.0698 4.71383 93.2171 4.71383C94.3644 4.71383 95.2567 5.61532 95.2567 6.77438C95.2567 7.93343 94.3644 8.83492 93.2171 8.83492C92.0698 8.83492 91.1775 7.95919 91.1775 6.77438Z" fill="#434142"/>
<path d="M97.1943 22.8981V19.0604H97.4493C98.3416 21.7133 100.432 23.2072 102.089 23.2072C103.466 23.2072 104.384 22.28 104.384 21.0179C104.384 19.7558 103.441 19.1634 101.477 18.674C99.03 18.0558 97.0414 17.0513 97.0414 14.3984C97.0414 11.9 99.1319 10.3031 101.962 10.3031C103.262 10.3031 104.715 10.6894 106.016 11.2561V14.862H105.761C104.996 12.6212 103.186 10.947 101.477 10.947C100.228 10.947 99.4124 11.7454 99.4124 12.8787C99.4124 14.1151 100.432 14.656 102.319 15.1711C104.868 15.8665 106.831 16.8968 106.831 19.6528C106.831 22.6921 104.205 23.8511 101.681 23.8511C100.254 23.8511 98.5965 23.5936 97.1943 22.8981Z" fill="#434142"/>
<path d="M108.03 23.3875C108.489 22.7178 108.744 21.6618 108.744 20.477V8.75765C108.744 7.28951 108.412 6.49105 107.826 5.9244V5.79562L112.058 4.35324H112.185V12.853H112.313C112.95 11.4621 114.352 10.3288 116.316 10.3288C118.84 10.3288 120.42 12.1318 120.42 14.6817V20.5027C120.42 21.6876 120.675 22.7436 121.134 23.4133V23.542H116.265V23.4133C116.723 22.7436 116.978 21.6876 116.978 20.5027V14.759C116.978 13.3681 116.061 12.3378 114.658 12.3378C113.333 12.3378 112.185 13.2651 112.185 14.759V20.5027C112.185 21.6876 112.44 22.7436 112.899 23.4133V23.542H108.03V23.3875Z" fill="#434142"/>
<path d="M122.511 23.5163V23.3875C122.97 22.7178 123.225 21.6618 123.225 20.477V14.7075C123.225 13.2393 122.893 12.4666 122.307 11.8742V11.7454L126.539 10.3031H126.666V20.477C126.666 21.6618 126.921 22.7178 127.38 23.3875V23.5163H122.511ZM122.893 6.77438C122.893 5.61532 123.785 4.71383 124.933 4.71383C126.08 4.71383 126.972 5.61532 126.972 6.77438C126.972 7.93343 126.08 8.83492 124.933 8.83492C123.785 8.83492 122.893 7.95919 122.893 6.77438Z" fill="#434142"/>
<path d="M128.757 23.3875C129.216 22.7178 129.471 21.6618 129.471 20.477V8.75765C129.471 7.28951 129.139 6.49105 128.553 5.9244V5.79562L132.785 4.35324H132.913V20.5027C132.913 21.6876 133.168 22.7436 133.627 23.4133V23.542H128.757V23.3875ZM136.584 21.8421L133.423 17.4892V17.3604L136.558 13.7287C137.757 12.3636 137.782 11.3848 137.119 10.7667V10.6379H141.02V10.7667C139.567 11.4621 138.7 12.1318 137.502 13.4454L135.972 15.1196L140.816 21.7133C141.403 22.5118 141.81 22.9496 142.116 23.0527V23.233C141.581 23.5163 140.791 23.7223 140.051 23.7223C138.394 23.7223 137.502 23.1042 136.584 21.8421Z" fill="#434142"/>
<path d="M152.977 19.1634C152.391 21.9709 150.275 23.8511 147.368 23.8511C144.003 23.8511 141.301 21.533 141.301 17.3862C141.301 13.2393 144.232 10.3031 147.649 10.3031C151.065 10.3031 152.799 12.6212 152.799 15.2226H144.079C144.232 19.2149 146.451 21.3012 149.076 21.3012C150.759 21.3012 152.085 20.477 152.722 19.1634H152.977ZM144.079 14.6302H149.408C149.204 12.4924 148.286 11.05 146.68 11.05C145.201 11.05 144.13 12.2348 144.079 14.6302Z" fill="#434142"/>
<path d="M154.124 22.8981V19.0604H154.379C155.272 21.7133 157.362 23.2072 159.019 23.2072C160.396 23.2072 161.314 22.28 161.314 21.0179C161.314 19.7558 160.371 19.1634 158.408 18.674C155.96 18.0558 153.971 17.0513 153.971 14.3984C153.971 11.9 156.062 10.3031 158.892 10.3031C160.192 10.3031 161.645 10.6894 162.946 11.2561V14.862H162.691C161.926 12.6212 160.116 10.947 158.408 10.947C157.158 10.947 156.343 11.7454 156.343 12.8787C156.343 14.1151 157.362 14.656 159.249 15.1711C161.798 15.8665 163.762 16.8968 163.762 19.6528C163.762 22.6921 161.136 23.8511 158.612 23.8511C157.184 23.8511 155.527 23.5936 154.124 22.8981Z" fill="#434142"/>
<path d="M164.96 23.3875C165.419 22.7178 165.674 21.6618 165.674 20.477V8.75765C165.674 7.28951 165.342 6.49105 164.756 5.9244V5.79562L168.988 4.35324H169.115V12.853H169.243C169.88 11.4621 171.283 10.3288 173.246 10.3288C175.77 10.3288 177.35 12.1318 177.35 14.6817V20.5027C177.35 21.6876 177.605 22.7436 178.064 23.4133V23.542H173.195V23.4133C173.654 22.7436 173.908 21.6876 173.908 20.5027V14.759C173.908 13.3681 172.991 12.3378 171.588 12.3378C170.263 12.3378 169.115 13.2651 169.115 14.759V20.5027C169.115 21.6876 169.37 22.7436 169.829 23.4133V23.542H164.96V23.3875Z" fill="#434142"/>
<path d="M186.809 23.5163V23.3875C187.395 22.589 187.701 21.4557 187.701 20.1421V17.0256L183.699 9.01522C182.985 7.59859 182.245 6.56832 181.251 5.61532V5.48654H187.752V5.61532C187.217 6.36227 187.013 7.52132 187.727 8.9637L190.939 15.5059L194.075 9.19551C194.814 7.70162 194.661 6.41378 193.973 5.61532V5.48654H197.772V5.61532C196.701 6.38803 195.758 7.44405 195.069 8.80916L191.398 16.1241V20.1421C191.398 21.4557 191.704 22.589 192.29 23.3875V23.5163H186.809Z" fill="#434142"/>
<path d="M195.605 17.0771C195.605 13.1363 198.307 10.3031 202.106 10.3031C205.905 10.3031 208.582 13.1363 208.582 17.0771C208.582 21.0179 205.879 23.8511 202.106 23.8511C198.333 23.8511 195.605 21.0179 195.605 17.0771ZM204.885 17.0771C204.885 13.5227 204.043 10.8955 202.106 10.8955C200.168 10.8955 199.301 13.5227 199.301 17.0771C199.301 20.6315 200.168 23.2587 202.106 23.2587C204.043 23.2587 204.885 20.6315 204.885 17.0771Z" fill="#434142"/>
<path d="M222.119 11.3076C220.692 11.3076 219.927 11.4364 219.264 11.8227C220.029 12.5697 220.462 13.5484 220.462 14.6817C220.462 17.3089 218.168 19.0346 215.057 19.0346C213.757 19.0346 212.61 18.7513 211.666 18.2104C211.411 18.4937 211.259 18.8028 211.259 19.1634C211.259 20.4512 212.941 20.5027 214.981 20.5543C218.423 20.6315 221.355 21.0952 221.355 24.0572C221.355 27.0192 218.066 28.951 214.139 28.951C210.749 28.951 209.117 27.5601 209.117 25.4738C209.117 24.392 209.601 23.4648 210.494 22.7178C209.856 22.2027 209.55 21.533 209.55 20.683C209.55 19.7043 210.035 18.7513 211.233 17.9013C210.213 17.1544 209.601 16.0468 209.601 14.6817C209.601 12.0545 211.896 10.3288 215.032 10.3288C216.638 10.3288 217.989 10.7667 218.932 11.5136C219.544 9.78792 220.641 9.01522 222.119 9.01522V11.3076ZM210.927 23.0527C210.749 23.3875 210.723 23.7739 210.723 24.0572C210.723 26.0662 213.222 27.7919 216.23 27.7919C218.295 27.7919 219.85 26.9419 219.85 25.6026C219.85 24.3405 218.933 23.9284 215.746 23.8511C213.732 23.7996 212.253 23.6966 211.284 23.233C211.157 23.1815 211.055 23.1042 210.927 23.0527ZM217.173 14.6817C217.173 12.3121 216.383 10.9212 215.032 10.9212C213.681 10.9212 212.89 12.3121 212.89 14.6817C212.89 17.0513 213.706 18.4422 215.032 18.4422C216.357 18.4422 217.173 17.0771 217.173 14.6817Z" fill="#434142"/>
<path d="M234 22.6148C233.592 23.3617 232.623 23.8511 231.502 23.8511C230.074 23.8511 229.181 23.1299 229.003 21.9709V21.8679H228.901C228.289 22.9754 227.167 23.8511 225.306 23.8511C223.216 23.8511 221.992 22.7693 221.992 21.0694C221.992 18.0816 225.612 16.7938 229.003 16.7938V15.1968C229.003 13.3166 227.805 11.9772 225.765 11.9772C224.261 11.9772 223.114 12.7242 222.476 13.9348H222.221C222.808 11.6682 224.822 10.3031 227.32 10.3031C230.584 10.3031 232.445 12.3378 232.445 15.1968V21.6618C232.445 22.4345 232.827 22.6921 233.235 22.6921C233.567 22.6921 233.796 22.589 233.873 22.486L234 22.6148ZM229.003 20.3482V17.3862C226.938 17.4377 225.561 18.468 225.561 20.2452C225.561 21.6618 226.352 22.1769 227.167 22.1769C228.238 22.1769 229.003 21.327 229.003 20.3482Z" fill="#434142"/>
<path d="M62.7507 33.8705L68.6655 33.8448V35.1326H68.6145C68.3596 34.9523 68.1811 34.8235 68.0536 34.7462C67.9262 34.669 67.7222 34.5659 67.3908 34.4372C67.0848 34.3084 66.7789 34.2569 66.5239 34.2569H64.1019V38.0946H65.4786C66.014 38.0946 66.6769 37.9658 67.4672 37.7083H67.5182V38.9188H67.4672C66.6004 38.6613 65.9376 38.5067 65.4786 38.5067H64.1019V43.0914H62.7507C62.9037 42.3445 62.9801 41.7779 62.9801 41.3142V35.5962C62.9801 35.1326 62.9037 34.5659 62.7507 33.8705Z" fill="#434142"/>
<path d="M69.8638 33.7932V33.7417H70.0932L71.215 33.5357V41.3142C71.215 41.7779 71.2915 42.3445 71.4445 43.0657L69.8893 43.0914C70.0422 42.3445 70.1442 41.7779 70.1442 41.3142V35.4674C70.1442 34.8235 70.0422 34.2569 69.8383 33.7675L69.8638 33.7932Z" fill="#434142"/>
<path d="M72.6172 39.8976C72.6172 38.9188 72.8977 38.1204 73.484 37.528C74.0704 36.9356 74.7843 36.6522 75.6511 36.6522C76.5179 36.6522 77.2318 36.9613 77.8437 37.528C78.4301 38.1204 78.7105 38.9188 78.7105 39.8976C78.7105 40.8764 78.4046 41.7006 77.8437 42.293C77.2573 42.9111 76.5179 43.2202 75.6511 43.2202C74.7843 43.2202 74.0704 42.9111 73.484 42.3187C72.8977 41.7263 72.6172 40.9021 72.6172 39.9234V39.8976ZM74.3254 41.9324C74.6568 42.4733 75.1157 42.7566 75.6766 42.7566C76.2375 42.7566 76.6964 42.4733 77.0533 41.9324C77.4103 41.3915 77.5632 40.6961 77.5632 39.8976C77.5632 39.0991 77.3848 38.4295 77.0533 37.8886C76.7219 37.3477 76.263 37.0644 75.6766 37.0644C75.0902 37.0644 74.6568 37.3219 74.3254 37.8628C73.9939 38.4037 73.8155 39.0734 73.8155 39.8976C73.8155 40.7218 73.9939 41.3915 74.3254 41.9324Z" fill="#434142"/>
<path d="M79.1949 36.7295H80.9031C80.8776 36.8841 80.8521 37.0128 80.8521 37.1674C80.8521 37.5537 80.9541 37.9916 81.1325 38.5325L82.3053 42.0869L83.5036 38.4037C83.2741 37.7598 83.0191 37.2189 82.7387 36.8068L84.4469 36.781C84.4469 36.9356 84.4214 37.0644 84.4214 37.2189C84.4214 37.6052 84.5233 38.0431 84.6763 38.584L85.8491 42.1384L86.9963 38.7128C87.1238 38.3264 87.2003 37.9401 87.2003 37.6053C87.2003 37.3219 87.1493 37.0644 87.0728 36.8583V36.8068H88.2456V36.8583C87.9907 37.2189 87.8122 37.6053 87.6592 38.0431L85.9766 43.1945H85.1352L83.733 39.1507L82.3818 43.1945H81.5659L79.9343 38.4552C79.7048 37.8113 79.4499 37.2704 79.1694 36.8583L79.1949 36.7295Z" fill="#434142"/>
<path d="M88.781 42.396C88.781 42.1642 88.8575 41.9839 89.0105 41.8294C89.1634 41.6748 89.3674 41.5975 89.5713 41.5975C89.7753 41.5975 89.9793 41.6748 90.1322 41.8294C90.2852 41.9839 90.3617 42.19 90.3617 42.396C90.3617 42.6021 90.2852 42.8081 90.1322 42.9627C89.9793 43.1172 89.7753 43.1945 89.5713 43.1945C89.3674 43.1945 89.1634 43.1172 89.0105 42.9627C88.8575 42.8081 88.781 42.6278 88.781 42.396Z" fill="#434142"/>
<path d="M101.707 33.819V35.4932H101.656C101.656 35.4932 101.528 35.3644 101.325 35.1841C101.121 35.0038 100.968 34.8493 100.815 34.7462C100.687 34.6432 100.509 34.5402 100.279 34.4372C100.05 34.3341 99.8458 34.2826 99.6418 34.2826H98.5711V41.3142C98.5711 41.7779 98.6475 42.3445 98.826 43.0657L97.2198 43.0914C97.3728 42.3445 97.4493 41.7779 97.4493 41.3142V34.2826H96.3785C96.1745 34.2826 95.9706 34.3341 95.7411 34.4372C95.5117 34.5402 95.3332 34.6432 95.2057 34.7462C95.0782 34.8493 94.8998 35.0038 94.6958 35.1841C94.4919 35.3644 94.3899 35.4674 94.3644 35.4932H94.3134V33.819H101.707Z" fill="#434142"/>
<path d="M101.477 39.8976C101.477 38.9188 101.758 38.1461 102.293 37.528C102.829 36.9356 103.543 36.6265 104.358 36.6265C105.174 36.6265 105.786 36.9098 106.271 37.4765C106.755 38.0431 107.01 38.7643 107.01 39.6658H102.625C102.625 40.49 102.829 41.1339 103.211 41.6491C103.594 42.1642 104.129 42.4218 104.817 42.4218C105.557 42.4218 106.271 42.0869 106.959 41.3915H107.01C106.78 41.9581 106.423 42.3703 105.965 42.7051C105.506 43.0399 104.97 43.1945 104.384 43.1945C103.568 43.1945 102.854 42.8854 102.293 42.293C101.732 41.7006 101.452 40.9021 101.452 39.8976H101.477ZM105.914 39.2022C105.888 38.5325 105.735 38.0174 105.48 37.631C105.225 37.2447 104.843 37.0644 104.384 37.0644C103.874 37.0644 103.466 37.2704 103.16 37.7083C102.854 38.1461 102.701 38.687 102.65 39.3567L105.914 39.2279V39.2022Z" fill="#434142"/>
<path d="M108.157 41.3142C108.157 40.593 108.463 40.0521 109.049 39.7431C109.661 39.434 110.248 39.2537 110.86 39.2537C111.14 39.2537 111.446 39.2794 111.752 39.3567C111.93 39.3567 112.058 39.4082 112.16 39.4597V38.6098C112.16 38.1204 112.032 37.7598 111.803 37.5022C111.573 37.2447 111.267 37.1159 110.911 37.1159C110.528 37.1159 110.12 37.2704 109.636 37.6053C109.151 37.9401 108.82 38.2492 108.565 38.584H108.54V37.1931C109.406 36.8325 110.222 36.6522 110.936 36.6522C111.624 36.6522 112.185 36.8325 112.593 37.1674C113.001 37.5022 113.205 37.9916 113.205 38.584V41.9324C113.205 42.2157 113.256 42.396 113.384 42.4733C113.486 42.5505 113.613 42.6021 113.715 42.6021C113.817 42.6021 113.893 42.6021 113.995 42.5506C113.817 42.9627 113.511 43.143 113.103 43.143C112.823 43.143 112.619 43.0657 112.44 42.9111C112.262 42.7566 112.16 42.5248 112.134 42.2415C111.65 42.8854 110.987 43.2202 110.171 43.2202C109.559 43.2202 109.049 43.0399 108.693 42.6793C108.31 42.3187 108.132 41.8551 108.132 41.34L108.157 41.3142ZM109.279 41.2112C109.279 41.5975 109.406 41.9324 109.687 42.19C109.967 42.4475 110.299 42.5763 110.681 42.5763C111.242 42.5763 111.726 42.293 112.16 41.7521V39.7688H112.058C111.752 39.7173 111.471 39.6658 111.217 39.6658C110.758 39.6658 110.324 39.7946 109.916 40.0521C109.508 40.3097 109.304 40.6961 109.304 41.2112H109.279Z" fill="#434142"/>
<path d="M115.551 37.528C116.112 36.9356 116.825 36.6522 117.692 36.6522C118.355 36.6522 119.069 36.8583 119.834 37.2962V38.7385H119.783C119.145 37.631 118.457 37.0901 117.692 37.0901C117.131 37.0901 116.672 37.3477 116.367 37.8371C116.035 38.3522 115.882 38.9704 115.882 39.7173C115.882 40.5415 116.086 41.2112 116.468 41.7006C116.851 42.2157 117.386 42.4475 118.075 42.4475C118.789 42.4475 119.477 42.1384 120.114 41.5203C119.885 42.0612 119.528 42.4733 119.094 42.7566C118.661 43.0657 118.151 43.1945 117.616 43.1945C116.8 43.1945 116.112 42.8854 115.525 42.293C114.964 41.7006 114.684 40.9021 114.684 39.8976C114.684 38.8931 114.964 38.0946 115.525 37.528H115.551Z" fill="#434142"/>
<path d="M121.465 33.716L122.562 33.5357V37.8113C123.148 37.0386 123.837 36.6522 124.627 36.6522C125.213 36.6522 125.698 36.8325 126.106 37.1931C126.513 37.5537 126.717 38.0946 126.717 38.8673V41.34C126.717 41.8036 126.794 42.3703 126.947 43.0914L125.417 43.1172C125.57 42.3703 125.647 41.8036 125.647 41.34V38.9704C125.647 38.4295 125.519 38.0431 125.239 37.7855C124.958 37.528 124.627 37.3992 124.193 37.3992C123.633 37.3992 123.097 37.6568 122.536 38.1977V41.34C122.536 41.8036 122.613 42.3703 122.766 43.0914L121.236 43.1172C121.389 42.3703 121.465 41.8036 121.465 41.34V35.4932C121.465 34.875 121.363 34.3084 121.185 33.7932V33.7417H121.414L121.465 33.716Z" fill="#434142"/>
<path d="M128.451 42.396C128.451 42.1642 128.528 41.9839 128.681 41.8294C128.834 41.6748 129.037 41.5975 129.241 41.5975C129.445 41.5975 129.649 41.6748 129.802 41.8294C129.955 41.9839 130.032 42.19 130.032 42.396C130.032 42.6021 129.955 42.8081 129.802 42.9627C129.649 43.1172 129.445 43.1945 129.241 43.1945C129.037 43.1945 128.834 43.1172 128.681 42.9627C128.528 42.8081 128.451 42.6278 128.451 42.396Z" fill="#434142"/>
<path d="M136.151 33.819C135.998 34.5659 135.921 35.1326 135.921 35.5962V41.3142C135.921 41.7779 135.998 42.3445 136.151 43.0657L134.57 43.0914C134.723 42.3445 134.825 41.7779 134.825 41.3142V35.5962C134.825 35.1326 134.748 34.5659 134.57 33.8705L136.151 33.8448V33.819Z" fill="#434142"/>
<path d="M137.986 41.3142V38.5067C137.986 38.0431 137.91 37.4765 137.731 36.781L139.006 36.7553V37.8371C139.592 37.0644 140.281 36.678 141.097 36.678C141.683 36.678 142.167 36.8583 142.575 37.2189C142.983 37.5795 143.162 38.1204 143.162 38.8931V41.3657C143.162 41.8294 143.238 42.396 143.417 43.1172L141.887 43.143C142.04 42.396 142.142 41.8294 142.142 41.3657V38.9961C142.142 38.481 142.014 38.0689 141.734 37.8113C141.453 37.528 141.122 37.3992 140.714 37.3992C140.153 37.3992 139.592 37.6825 139.031 38.2234V41.34C139.031 41.8036 139.108 42.3703 139.286 43.0914L137.757 43.1172C137.91 42.3703 138.012 41.8036 138.012 41.34L137.986 41.3142Z" fill="#434142"/>
<path d="M144.691 38.4552C144.691 37.8886 144.895 37.4507 145.329 37.1416C145.762 36.8325 146.298 36.6522 146.96 36.6522C147.649 36.6522 148.363 36.8325 149.102 37.1931V38.4552H149.051C148.312 37.528 147.598 37.0644 146.909 37.0644C146.552 37.0644 146.272 37.1674 145.992 37.3219C145.737 37.5022 145.609 37.7598 145.609 38.0689C145.609 38.378 145.737 38.6098 145.966 38.7643C146.196 38.9188 146.603 39.0991 147.215 39.2794C147.266 39.2794 147.317 39.3052 147.343 39.331C148.006 39.5628 148.516 39.8203 148.822 40.1037C149.127 40.4127 149.306 40.7991 149.306 41.2885C149.306 41.9066 149.102 42.3703 148.669 42.7051C148.235 43.0399 147.7 43.1945 147.062 43.1945C146.349 43.1945 145.584 42.9884 144.742 42.5506V41.1854H144.793C145.635 42.2157 146.4 42.7566 147.139 42.7566C147.496 42.7566 147.802 42.6536 148.057 42.4733C148.312 42.2672 148.439 42.0097 148.439 41.6491C148.439 41.3142 148.312 41.0567 148.057 40.8764C147.802 40.6961 147.394 40.5158 146.782 40.3097C146.068 40.0779 145.533 39.8203 145.201 39.5628C144.87 39.3052 144.691 38.9446 144.691 38.4552Z" fill="#434142"/>
<path d="M150.734 36.8325L151.804 36.7295V37.5795C152.289 36.9613 152.901 36.6522 153.666 36.6522C154.43 36.6522 154.991 36.9356 155.45 37.5022C155.909 38.0689 156.139 38.8416 156.139 39.8203C156.139 40.9021 155.858 41.7263 155.323 42.3187C154.787 42.9111 154.15 43.1945 153.411 43.1945C152.773 43.1945 152.212 42.9627 151.779 42.4733V43.8899C151.779 44.3535 151.855 44.9202 152.008 45.6414L150.479 45.6671C150.632 44.9202 150.708 44.3535 150.708 43.8899V38.6098C150.708 38.0431 150.606 37.4507 150.453 36.8841V36.8325H150.734ZM151.804 38.0689V42.0097C152.187 42.396 152.646 42.6021 153.13 42.6021C153.717 42.6021 154.175 42.3445 154.507 41.8551C154.838 41.3657 155.017 40.6961 155.017 39.8718C155.017 39.1249 154.864 38.5067 154.583 38.0174C154.277 37.528 153.87 37.2704 153.309 37.2704C152.748 37.2704 152.263 37.528 151.83 38.0689H151.804Z" fill="#434142"/>
<path d="M157.643 33.819C157.796 33.6645 157.974 33.6129 158.178 33.6129C158.382 33.6129 158.586 33.6902 158.739 33.8448C158.892 33.9993 158.968 34.1796 158.968 34.3857C158.968 34.5917 158.892 34.772 158.739 34.9265C158.586 35.0811 158.408 35.1584 158.178 35.1584C157.949 35.1584 157.77 35.0811 157.643 34.9265C157.49 34.772 157.413 34.5917 157.413 34.3857C157.413 34.1796 157.49 33.9735 157.643 33.819ZM157.464 43.0657C157.617 42.3703 157.719 41.7779 157.719 41.3142V38.5067C157.719 38.0431 157.643 37.4765 157.464 36.781L158.739 36.7553V41.34C158.739 41.8036 158.815 42.3703 158.994 43.0914L157.464 43.1172V43.0657Z" fill="#434142"/>
<path d="M160.422 36.7553L161.696 36.7295V37.7598C161.951 37.3219 162.283 37.0128 162.64 36.8583C162.997 36.7038 163.303 36.6265 163.583 36.6265C163.787 36.6265 164.016 36.6522 164.22 36.7295L164.067 37.9658H164.016C163.813 37.7855 163.609 37.6568 163.405 37.6053C163.201 37.5537 163.048 37.528 162.92 37.528C162.767 37.528 162.589 37.5537 162.359 37.631C162.13 37.7083 161.9 37.8628 161.671 38.1204V41.34C161.671 41.8036 161.747 42.3703 161.926 43.0914L160.396 43.1172C160.549 42.3703 160.651 41.8036 160.651 41.34V38.5325C160.651 38.0689 160.575 37.5022 160.396 36.8068L160.422 36.7553Z" fill="#434142"/>
<path d="M164.985 39.8976C164.985 38.9188 165.266 38.1461 165.801 37.528C166.337 36.9356 167.05 36.6265 167.866 36.6265C168.682 36.6265 169.294 36.9098 169.778 37.4765C170.263 38.0431 170.518 38.7643 170.518 39.6658H166.133C166.133 40.49 166.337 41.1339 166.719 41.6491C167.101 42.1642 167.637 42.4218 168.325 42.4218C169.064 42.4218 169.778 42.0869 170.467 41.3915H170.518C170.288 41.9581 169.931 42.3703 169.472 42.7051C169.013 43.0399 168.478 43.1945 167.892 43.1945C167.076 43.1945 166.362 42.8854 165.801 42.293C165.24 41.7006 164.96 40.9021 164.96 39.8976H164.985ZM169.421 39.2022C169.396 38.5325 169.243 38.0174 168.988 37.631C168.733 37.2447 168.351 37.0644 167.892 37.0644C167.382 37.0644 166.974 37.2704 166.668 37.7083C166.362 38.1461 166.209 38.687 166.158 39.3567L169.421 39.2279V39.2022Z" fill="#434142"/>
<path d="M171.818 42.396C171.818 42.1642 171.894 41.9839 172.047 41.8294C172.2 41.6748 172.404 41.5975 172.608 41.5975C172.812 41.5975 173.016 41.6748 173.169 41.8294C173.322 41.9839 173.399 42.19 173.399 42.396C173.399 42.6021 173.322 42.8081 173.169 42.9627C173.016 43.1172 172.812 43.1945 172.608 43.1945C172.404 43.1945 172.2 43.1172 172.047 42.9627C171.894 42.8081 171.818 42.6278 171.818 42.396Z" fill="#434142"/>
</svg>
