<svg width="12" height="12" viewBox="0 0 12 12" fill="none" xmlns="http://www.w3.org/2000/svg">
<path d="M2.625 5.625C2.22754 5.62617 1.84669 5.78459 1.56564 6.06564C1.28459 6.34669 1.12617 6.72754 1.125 7.125V9.75V9.5625C1.12543 9.41345 1.18484 9.27063 1.29023 9.16523C1.39563 9.05984 1.53845 9.00043 1.6875 9H10.3125C10.4616 9.00043 10.6044 9.05984 10.7098 9.16523C10.8152 9.27063 10.8746 9.41345 10.875 9.5625V9.75V7.125C10.8738 6.72754 10.7154 6.34669 10.4344 6.06564C10.1533 5.78459 9.77246 5.62617 9.375 5.625M2.625 5.625H9.375M2.625 5.625V5.25C2.62556 5.05126 2.70475 4.86082 2.84528 4.72028C2.98582 4.57975 3.17626 4.50056 3.375 4.5H5.25C5.44874 4.50056 5.63918 4.57975 5.77972 4.72028C5.92025 4.86082 5.99944 5.05126 6 5.25M9.375 5.625V5.25C9.37444 5.05126 9.29525 4.86082 9.15472 4.72028C9.01418 4.57975 8.82374 4.50056 8.625 4.5H6.75C6.55126 4.50056 6.36082 4.57975 6.22028 4.72028C6.07975 4.86082 6.00056 5.05126 6 5.25M6 5.25V5.625M2.25 5.625V3.1875C2.25074 2.93909 2.34975 2.70106 2.52541 2.52541C2.70106 2.34975 2.93909 2.25074 3.1875 2.25H8.8125C9.06091 2.25074 9.29894 2.34975 9.47459 2.52541C9.65025 2.70106 9.74926 2.93909 9.75 3.1875V5.625H2.25Z" stroke="#252324" stroke-opacity="0.75" stroke-width="0.75" stroke-linecap="round" stroke-linejoin="round"/>
</svg>
