<svg width="12" height="12" viewBox="0 0 12 12" fill="none" xmlns="http://www.w3.org/2000/svg">
<path d="M3.375 1.5V2.625M8.625 1.5V2.625M1.5 9.375V3.75C1.5 3.45163 1.61853 3.16548 1.8295 2.9545C2.04048 2.74353 2.32663 2.625 2.625 2.625H9.375C9.67337 2.625 9.95952 2.74353 10.1705 2.9545C10.3815 3.16548 10.5 3.45163 10.5 3.75V9.375M1.5 9.375C1.5 9.67337 1.61853 9.95952 1.8295 10.1705C2.04048 10.3815 2.32663 10.5 2.625 10.5H9.375C9.67337 10.5 9.95952 10.3815 10.1705 10.1705C10.3815 9.95952 10.5 9.67337 10.5 9.375M1.5 9.375V5.625C1.5 5.32663 1.61853 5.04048 1.8295 4.8295C2.04048 4.61853 2.32663 4.5 2.625 4.5H9.375C9.67337 4.5 9.95952 4.61853 10.1705 4.8295C10.3815 5.04048 10.5 5.32663 10.5 5.625V9.375M6 6.375H6.004V6.379H6V6.375ZM6 7.5H6.004V7.504H6V7.5ZM6 8.625H6.004V8.629H6V8.625ZM4.875 7.5H4.879V7.504H4.875V7.5ZM4.875 8.625H4.879V8.629H4.875V8.625ZM3.75 7.5H3.754V7.504H3.75V7.5ZM3.75 8.625H3.754V8.629H3.75V8.625ZM7.125 6.375H7.129V6.379H7.125V6.375ZM7.125 7.5H7.129V7.504H7.125V7.5ZM7.125 8.625H7.129V8.629H7.125V8.625ZM8.25 6.375H8.254V6.379H8.25V6.375ZM8.25 7.5H8.254V7.504H8.25V7.5Z" stroke="#252324" stroke-opacity="0.75" stroke-width="0.75" stroke-linecap="round" stroke-linejoin="round"/>
</svg>
