<svg width="12" height="12" viewBox="0 0 12 12" fill="none" xmlns="http://www.w3.org/2000/svg">
<path d="M6.5 9.375C6.70711 9.375 6.875 9.20711 6.875 9C6.875 8.79289 6.70711 8.625 6.5 8.625V9.375ZM1 8.5H0.625H1ZM1.5 1.5V1.125V1.5ZM10.5 1.5V1.125V1.5ZM8.5 8.625C8.29289 8.625 8.125 8.79289 8.125 9C8.125 9.20711 8.29289 9.375 8.5 9.375V8.625ZM3 3.125C2.79289 3.125 2.625 3.29289 2.625 3.5C2.625 3.70711 2.79289 3.875 3 3.875V3.125ZM9 3.875C9.20711 3.875 9.375 3.70711 9.375 3.5C9.375 3.29289 9.20711 3.125 9 3.125V3.875ZM3 4.875C2.79289 4.875 2.625 5.04289 2.625 5.25C2.625 5.45711 2.79289 5.625 3 5.625V4.875ZM4.5 5.625C4.70711 5.625 4.875 5.45711 4.875 5.25C4.875 5.04289 4.70711 4.875 4.5 4.875V5.625ZM3 6.625C2.79289 6.625 2.625 6.79289 2.625 7C2.625 7.20711 2.79289 7.375 3 7.375V6.625ZM4 7.375C4.20711 7.375 4.375 7.20711 4.375 7C4.375 6.79289 4.20711 6.625 4 6.625V7.375ZM9 6.75H9.375H9ZM7.5 10L7.66771 9.66459C7.56213 9.6118 7.43787 9.6118 7.33229 9.66459L7.5 10ZM8.5 10.5L8.33229 10.8354C8.44854 10.8935 8.58659 10.8873 8.69715 10.819C8.80771 10.7507 8.875 10.63 8.875 10.5H8.5ZM8.5 7.868H8.875C8.875 7.70641 8.77149 7.563 8.61814 7.51209C8.46478 7.46119 8.29606 7.51424 8.19943 7.64376L8.5 7.868ZM6.5 7.875L6.79856 7.64809C6.70116 7.51993 6.53283 7.46823 6.38028 7.51962C6.22773 7.57101 6.125 7.71403 6.125 7.875H6.5ZM6.5 10.5H6.125C6.125 10.63 6.19229 10.7507 6.30285 10.819C6.41341 10.8873 6.55146 10.8935 6.66771 10.8354L6.5 10.5ZM6.5 9V8.625H1.5V9V9.375H6.5V9ZM1.5 9V8.625C1.46685 8.625 1.43505 8.61183 1.41161 8.58839L1.14645 8.85355L0.881282 9.11872C1.04538 9.28281 1.26794 9.375 1.5 9.375V9ZM1.14645 8.85355L1.41161 8.58839C1.38817 8.56495 1.375 8.53315 1.375 8.5H1H0.625C0.625 8.73206 0.717187 8.95462 0.881282 9.11872L1.14645 8.85355ZM1 8.5H1.375V2H1H0.625V8.5H1ZM1 2H1.375C1.375 1.96685 1.38817 1.93505 1.41161 1.91161L1.14645 1.64645L0.881282 1.38128C0.717187 1.54538 0.625 1.76794 0.625 2H1ZM1.14645 1.64645L1.41161 1.91161C1.43505 1.88817 1.46685 1.875 1.5 1.875V1.5V1.125C1.26794 1.125 1.04538 1.21719 0.881282 1.38128L1.14645 1.64645ZM1.5 1.5V1.875H10.5V1.5V1.125H1.5V1.5ZM10.5 1.5V1.875C10.5332 1.875 10.5649 1.88817 10.5884 1.91161L10.8536 1.64645L11.1187 1.38128C10.9546 1.21719 10.7321 1.125 10.5 1.125V1.5ZM10.8536 1.64645L10.5884 1.91161C10.6118 1.93505 10.625 1.96685 10.625 2H11H11.375C11.375 1.76794 11.2828 1.54538 11.1187 1.38128L10.8536 1.64645ZM11 2H10.625V8.5H11H11.375V2H11ZM11 8.5H10.625C10.625 8.53315 10.6118 8.56495 10.5884 8.58839L10.8536 8.85355L11.1187 9.11872C11.2828 8.95462 11.375 8.73206 11.375 8.5H11ZM10.8536 8.85355L10.5884 8.58839C10.5649 8.61183 10.5332 8.625 10.5 8.625V9V9.375C10.7321 9.375 10.9546 9.28281 11.1187 9.11872L10.8536 8.85355ZM10.5 9V8.625H8.5V9V9.375H10.5V9ZM3 3.5V3.875H9V3.5V3.125H3V3.5ZM3 5.25V5.625H4.5V5.25V4.875H3V5.25ZM3 7V7.375H4V7V6.625H3V7ZM7.5 8.25V8.625C7.99728 8.625 8.47419 8.42746 8.82583 8.07583L8.56066 7.81066L8.2955 7.5455C8.08452 7.75647 7.79837 7.875 7.5 7.875V8.25ZM8.56066 7.81066L8.82583 8.07583C9.17746 7.72419 9.375 7.24728 9.375 6.75H9H8.625C8.625 7.04837 8.50647 7.33452 8.2955 7.5455L8.56066 7.81066ZM9 6.75H9.375C9.375 6.25272 9.17746 5.77581 8.82583 5.42417L8.56066 5.68934L8.2955 5.9545C8.50647 6.16548 8.625 6.45163 8.625 6.75H9ZM8.56066 5.68934L8.82583 5.42417C8.47419 5.07254 7.99728 4.875 7.5 4.875V5.25V5.625C7.79837 5.625 8.08452 5.74353 8.2955 5.9545L8.56066 5.68934ZM7.5 5.25V4.875C7.00272 4.875 6.52581 5.07254 6.17417 5.42417L6.43934 5.68934L6.7045 5.9545C6.91548 5.74353 7.20163 5.625 7.5 5.625V5.25ZM6.43934 5.68934L6.17417 5.42417C5.82254 5.77581 5.625 6.25272 5.625 6.75H6H6.375C6.375 6.45163 6.49353 6.16548 6.7045 5.9545L6.43934 5.68934ZM6 6.75H5.625C5.625 7.24728 5.82254 7.72419 6.17417 8.07583L6.43934 7.81066L6.7045 7.5455C6.49353 7.33452 6.375 7.04837 6.375 6.75H6ZM6.43934 7.81066L6.17417 8.07583C6.52581 8.42746 7.00272 8.625 7.5 8.625V8.25V7.875C7.20163 7.875 6.91548 7.75647 6.7045 7.5455L6.43934 7.81066ZM7.5 10L7.33229 10.3354L8.33229 10.8354L8.5 10.5L8.66771 10.1646L7.66771 9.66459L7.5 10ZM8.5 10.5H8.875V7.868H8.5H8.125V10.5H8.5ZM8.5 7.868C8.19943 7.64376 8.19957 7.64358 8.1997 7.64341C8.19974 7.64335 8.19987 7.64318 8.19995 7.64307C8.20012 7.64284 8.20028 7.64262 8.20044 7.64241C8.20076 7.64198 8.20107 7.64158 8.20136 7.6412C8.20195 7.64043 8.20247 7.63975 8.20294 7.63915C8.20387 7.63795 8.20456 7.63708 8.20501 7.63653C8.20591 7.63542 8.20585 7.63553 8.20481 7.63672C8.20272 7.63909 8.19675 7.64566 8.18671 7.65515C8.16662 7.67415 8.13049 7.70456 8.07648 7.73667C7.97109 7.79933 7.78691 7.875 7.5 7.875V8.25V8.625C7.92809 8.625 8.24391 8.50967 8.45977 8.38133C8.56638 8.31794 8.6462 8.25285 8.70188 8.20022C8.72973 8.1739 8.75162 8.15063 8.76791 8.13211C8.77606 8.12285 8.78282 8.11476 8.78824 8.10805C8.79095 8.1047 8.79333 8.10169 8.79538 8.09904C8.79641 8.09772 8.79735 8.09649 8.79822 8.09536C8.79865 8.09479 8.79906 8.09425 8.79945 8.09373C8.79965 8.09347 8.79984 8.09322 8.80002 8.09297C8.80012 8.09284 8.80025 8.09266 8.8003 8.0926C8.80043 8.09242 8.80057 8.09224 8.5 7.868ZM7.5 8.25V7.875C7.21168 7.875 7.02658 7.80031 6.92091 7.73863C6.8668 7.70705 6.83071 7.6772 6.81076 7.6587C6.80079 7.64944 6.79491 7.64307 6.79291 7.64084C6.79191 7.63973 6.7919 7.63967 6.79285 7.64082C6.79332 7.64139 6.79403 7.64227 6.79499 7.64348C6.79546 7.64408 6.796 7.64476 6.7966 7.64553C6.79689 7.64592 6.79721 7.64632 6.79753 7.64675C6.7977 7.64696 6.79786 7.64718 6.79804 7.64741C6.79812 7.64752 6.79825 7.64769 6.7983 7.64775C6.79843 7.64792 6.79856 7.64809 6.5 7.875C6.20144 8.10191 6.20157 8.10208 6.20171 8.10226C6.20176 8.10232 6.2019 8.10251 6.20199 8.10263C6.20218 8.10288 6.20237 8.10313 6.20257 8.10339C6.20297 8.10391 6.20338 8.10445 6.20382 8.10501C6.2047 8.10614 6.20565 8.10736 6.20669 8.10867C6.20877 8.1113 6.21117 8.11428 6.21391 8.11761C6.21938 8.12425 6.22619 8.13224 6.23438 8.14139C6.25076 8.15966 6.27273 8.18259 6.30064 8.20849C6.35647 8.2603 6.43633 8.3242 6.54285 8.38637C6.75842 8.51219 7.07332 8.625 7.5 8.625V8.25ZM6.5 7.875H6.125V10.5H6.5H6.875V7.875H6.5ZM6.5 10.5L6.66771 10.8354L7.66771 10.3354L7.5 10L7.33229 9.66459L6.33229 10.1646L6.5 10.5Z" fill="#252324" fill-opacity="0.75"/>
</svg>
