<svg width="12" height="12" viewBox="0 0 12 12" fill="none" xmlns="http://www.w3.org/2000/svg">
<path d="M5 4.6275C3.803 3.979 2.54 2.8575 1.5 1M2 5.5C1.68 5.735 1.5 6.0025 1.5 6.286C1.5 7.2325 3.515 8 6 8C8.485 8 10.5 7.2325 10.5 6.286C10.5 6.0025 10.32 5.7355 10 5.5M10.5 6.5C10.5 8.2885 9.247 9.8575 7.8975 10.741C7.62 10.923 7.29 11 6.9585 11H5.0415C4.71 11 4.38 10.923 4.1025 10.741C2.753 9.8575 1.5 8.2885 1.5 6.5M5.808 2.2095C4.79 1.542 3.5485 1.821 3.0345 2.833C2.5205 3.845 2.929 5.2065 3.9465 5.8745C4.8675 6.479 6.8835 7.104 8.5 5.3725C6.985 4.7275 6.825 2.8775 5.808 2.2095Z" stroke="#252324" stroke-opacity="0.75" stroke-width="0.75" stroke-linecap="round" stroke-linejoin="round"/>
</svg>
