<svg width="12" height="12" viewBox="0 0 12 12" fill="none" xmlns="http://www.w3.org/2000/svg">
<g clip-path="url(#clip0_323_604)">
<path d="M1.25 6.5L2.25 7M10.75 6.75L9.75 7M4 9.25L4.123 8.943C4.3055 8.4865 4.397 8.258 4.5875 8.129C4.7775 8 5.0235 8 5.5155 8H6.4845C6.9765 8 7.2225 8 7.4125 8.129C7.6025 8.258 7.6945 8.4865 7.8775 8.943L8 9.25M1 9V10.441C1 10.6305 1.12 10.8035 1.311 10.888C1.4345 10.943 1.5525 11 1.6955 11H2.5545C2.6975 11 2.8155 10.943 2.9395 10.888C3.1295 10.8035 3.25 10.6305 3.25 10.441V9.5M8.75 9.5V10.441C8.75 10.6305 8.87 10.8035 9.061 10.888C9.1845 10.943 9.3025 11 9.4455 11H10.3045C10.4475 11 10.5655 10.943 10.6895 10.888C10.8795 10.8035 11 10.6305 11 10.441V9M10 4.75L10.5 4.5M2 4.75L1.5 4.5M2.25 5.25L2.794 3.6175C3.014 2.9575 3.124 2.6275 3.386 2.439C3.648 2.2505 3.996 2.25 4.6915 2.25H7.3085C8.004 2.25 8.352 2.25 8.6135 2.439C8.876 2.6275 8.986 2.9575 9.206 3.6175L9.75 5.25M2.25 5.25H9.75M2.25 5.25C1.7715 5.7285 1 6.395 1 7.1385V8.7775C1 9.047 1.19 9.2735 1.4415 9.305L3 9.5H9L10.5585 9.305C10.81 9.2735 11 9.047 11 8.7775V7.1385C11 6.395 10.2285 5.7285 9.75 5.25M7.75 2.25C7.63 1.6465 7.57 1.345 7.427 1.1725C7.284 1 7.094 1 6.7145 1H5.286C4.906 1 4.716 1 4.573 1.1725C4.43 1.345 4.37 1.6465 4.25 2.25" stroke="#252324" stroke-opacity="0.75" stroke-width="0.75" stroke-linecap="round" stroke-linejoin="round"/>
</g>
<defs>
<clipPath id="clip0_323_604">
<rect width="12" height="12" fill="white"/>
</clipPath>
</defs>
</svg>
