<svg width="306" height="183" viewBox="0 0 306 183" fill="none" xmlns="http://www.w3.org/2000/svg">
<g clip-path="url(#clip0_19_297)">
<path d="M0 173.441V173.213C1.04779 171.802 1.59446 169.799 1.59446 167.477V147.539C1.59446 145.217 1.04779 143.214 0 141.803V141.575H9.79455V141.803C8.74676 143.214 8.20009 145.217 8.20009 147.539V156.461H21.5936V147.539C21.5936 145.217 21.0469 143.214 19.9991 141.803V141.575H29.7936V141.803C28.7459 143.214 28.1992 145.217 28.1992 147.539V167.477C28.1992 169.799 28.7459 171.802 29.7936 173.213V173.441H19.9991V173.213C21.0469 171.802 21.5936 169.799 21.5936 167.477V157.599H8.20009V167.477C8.20009 169.799 8.74676 171.802 9.79455 173.213V173.441H0Z" fill="#434142"/>
<path d="M32.9826 173.441V173.213C33.8026 172.03 34.2582 170.163 34.2582 168.069V157.872C34.2582 155.277 33.666 153.912 32.6182 152.865V152.637L40.1805 150.088H40.4083V156.324H40.636C41.5927 152.546 43.825 150.088 48.6083 150.088V155.778H45.9661C42.2305 155.778 40.4083 157.144 40.4083 160.968V168.069C40.4083 170.163 40.8638 172.03 41.6838 173.213V173.441H32.9826Z" fill="#434142"/>
<path d="M50.1115 173.44V173.213C50.9315 172.029 51.3871 170.163 51.3871 168.069V157.872C51.3871 155.277 50.7949 153.911 49.7471 152.864V152.637L57.3094 150.087H57.5372V168.069C57.5372 170.163 57.9927 172.029 58.8127 173.213V173.44H50.1115ZM50.7949 143.851C50.7949 141.802 52.3893 140.209 54.4393 140.209C56.4894 140.209 58.0838 141.802 58.0838 143.851C58.0838 145.899 56.4894 147.493 54.4393 147.493C52.3893 147.493 50.7949 145.945 50.7949 143.851Z" fill="#434142"/>
<path d="M61.5458 172.348V165.565H62.0014C63.5958 170.254 67.3314 172.895 70.2926 172.895C72.7526 172.895 74.3926 171.256 74.3926 169.025C74.3926 166.795 72.707 165.748 69.1992 164.883C64.8258 163.79 61.2725 162.015 61.2725 157.326C61.2725 152.91 65.0081 150.088 70.0648 150.088C72.3881 150.088 74.9848 150.771 77.3082 151.772V158.145H76.8526C75.486 154.185 72.2515 151.226 69.1992 151.226C66.967 151.226 65.5092 152.637 65.5092 154.64C65.5092 156.825 67.3314 157.781 70.7026 158.692C75.2582 159.921 78.766 161.742 78.766 166.613C78.766 171.984 74.0737 174.033 69.5637 174.033C67.0125 174.033 64.0514 173.577 61.5458 172.348Z" fill="#434142"/>
<path d="M80.9074 173.441V173.213C81.7274 172.029 82.183 170.163 82.183 168.069V147.311C82.183 144.716 81.5908 143.305 80.543 142.303V142.076L88.1053 139.526H88.333V154.549H88.5608C89.6997 152.091 92.2053 150.088 95.7131 150.088C100.223 150.088 103.048 153.274 103.048 157.781V168.069C103.048 170.163 103.503 172.029 104.323 173.213V173.441H95.622V173.213C96.442 172.029 96.8976 170.163 96.8976 168.069V157.917C96.8976 155.459 95.2576 153.638 92.752 153.638C90.3831 153.638 88.333 155.277 88.333 157.917V168.069C88.333 170.163 88.7886 172.029 89.6086 173.213V173.441H80.9074Z" fill="#434142"/>
<path d="M106.783 173.44V173.213C107.603 172.029 108.059 170.163 108.059 168.069V157.872C108.059 155.277 107.467 153.911 106.419 152.864V152.637L113.981 150.087H114.209V168.069C114.209 170.163 114.665 172.029 115.485 173.213V173.44H106.783ZM107.467 143.851C107.467 141.802 109.061 140.209 111.111 140.209C113.161 140.209 114.756 141.802 114.756 143.851C114.756 145.899 113.161 147.493 111.111 147.493C109.061 147.493 107.467 145.945 107.467 143.851Z" fill="#434142"/>
<path d="M117.945 173.441V173.213C118.765 172.029 119.22 170.163 119.22 168.069V147.311C119.22 144.716 118.628 143.305 117.58 142.303V142.076L125.142 139.526H125.37V168.069C125.37 170.163 125.826 172.029 126.646 173.213V173.441H117.945ZM131.93 170.482L126.281 162.788V162.561L131.885 156.142C134.026 153.729 134.071 152 132.887 150.907V150.679H139.857V150.907C137.26 152.136 135.711 153.32 133.57 155.641L130.837 158.6L139.493 170.254C140.54 171.665 141.269 172.439 141.816 172.621V172.94C140.859 173.441 139.447 173.805 138.126 173.805C135.165 173.805 133.57 172.712 131.93 170.482Z" fill="#434142"/>
<path d="M161.223 165.748C160.175 170.71 156.394 174.033 151.201 174.033C145.187 174.033 140.358 169.936 140.358 162.607C140.358 155.277 145.597 150.088 151.702 150.088C157.806 150.088 160.904 154.185 160.904 158.783H145.324C145.597 165.839 149.561 169.526 154.253 169.526C157.26 169.526 159.629 168.069 160.768 165.748H161.223ZM145.324 157.736H154.845C154.481 153.957 152.841 151.408 149.971 151.408C147.328 151.408 145.415 153.502 145.324 157.736Z" fill="#434142"/>
<path d="M163.273 172.348V165.565H163.729C165.323 170.254 169.059 172.895 172.02 172.895C174.48 172.895 176.12 171.256 176.12 169.025C176.12 166.795 174.435 165.748 170.927 164.883C166.553 163.79 163 162.015 163 157.326C163 152.91 166.736 150.088 171.792 150.088C174.116 150.088 176.712 150.771 179.036 151.772V158.145H178.58C177.214 154.185 173.979 151.226 170.927 151.226C168.695 151.226 167.237 152.637 167.237 154.64C167.237 156.825 169.059 157.781 172.43 158.692C176.986 159.921 180.494 161.742 180.494 166.613C180.494 171.984 175.801 174.033 171.291 174.033C168.74 174.033 165.779 173.577 163.273 172.348Z" fill="#434142"/>
<path d="M182.634 173.441V173.213C183.454 172.029 183.91 170.163 183.91 168.069V147.311C183.91 144.716 183.317 143.305 182.27 142.303V142.076L189.832 139.526H190.06V154.549H190.287C191.426 152.091 193.932 150.088 197.44 150.088C201.95 150.088 204.774 153.274 204.774 157.781V168.069C204.774 170.163 205.23 172.029 206.05 173.213V173.441H197.349V173.213C198.169 172.029 198.624 170.163 198.624 168.069V157.917C198.624 155.459 196.984 153.638 194.479 153.638C192.11 153.638 190.06 155.277 190.06 157.917V168.069C190.06 170.163 190.515 172.029 191.335 173.213V173.441H182.634Z" fill="#434142"/>
<path d="M221.675 173.441V173.213C222.723 171.802 223.27 169.799 223.27 167.477V161.969L216.118 147.812C214.842 145.308 213.521 143.487 211.744 141.803V141.575H223.361V141.803C222.404 143.123 222.04 145.171 223.315 147.721L229.055 159.283L234.659 148.13C235.98 145.49 235.707 143.214 234.477 141.803V141.575H241.264V141.803C239.351 143.168 237.666 145.035 236.436 147.448L229.875 160.376V167.477C229.875 169.799 230.422 171.802 231.47 173.213V173.441H221.675Z" fill="#434142"/>
<path d="M237.393 162.06C237.393 155.095 242.222 150.088 249.009 150.088C255.797 150.088 260.581 155.095 260.581 162.06C260.581 169.025 255.752 174.033 249.009 174.033C242.267 174.033 237.393 169.025 237.393 162.06ZM253.975 162.06C253.975 155.778 252.472 151.135 249.009 151.135C245.547 151.135 243.998 155.778 243.998 162.06C243.998 168.342 245.547 172.986 249.009 172.986C252.472 172.986 253.975 168.342 253.975 162.06Z" fill="#434142"/>
<path d="M284.771 151.817C282.22 151.817 280.853 152.045 279.668 152.728C281.035 154.048 281.81 155.778 281.81 157.781C281.81 162.424 277.71 165.474 272.152 165.474C269.828 165.474 267.778 164.973 266.093 164.017C265.637 164.518 265.364 165.064 265.364 165.701C265.364 167.978 268.371 168.069 272.015 168.16C278.165 168.296 283.404 169.116 283.404 174.351C283.404 179.586 277.527 183 270.512 183C264.453 183 261.537 180.542 261.537 176.854C261.537 174.942 262.403 173.304 263.997 171.984C262.858 171.073 262.312 169.89 262.312 168.387C262.312 166.657 263.177 164.973 265.318 163.471C263.496 162.151 262.403 160.193 262.403 157.781C262.403 153.137 266.503 150.087 272.106 150.087C274.976 150.087 277.391 150.861 279.076 152.181C280.17 149.131 282.128 147.766 284.771 147.766V151.817ZM264.772 172.575C264.453 173.167 264.407 173.85 264.407 174.351C264.407 177.901 268.872 180.951 274.247 180.951C277.937 180.951 280.716 179.449 280.716 177.082C280.716 174.851 279.076 174.123 273.382 173.987C269.783 173.895 267.14 173.713 265.409 172.894C265.182 172.803 264.999 172.666 264.772 172.575ZM275.933 157.781C275.933 153.592 274.521 151.134 272.106 151.134C269.692 151.134 268.279 153.592 268.279 157.781C268.279 161.969 269.737 164.427 272.106 164.427C274.475 164.427 275.933 162.014 275.933 157.781Z" fill="#434142"/>
<path d="M306 171.848C305.271 173.168 303.54 174.033 301.535 174.033C298.984 174.033 297.39 172.758 297.071 170.71V170.527H296.889C295.795 172.485 293.791 174.033 290.465 174.033C286.73 174.033 284.543 172.121 284.543 169.116C284.543 163.836 291.012 161.56 297.071 161.56V158.737C297.071 155.414 294.93 153.047 291.285 153.047C288.597 153.047 286.547 154.367 285.409 156.507H284.953C286.001 152.501 289.6 150.088 294.064 150.088C299.895 150.088 303.221 153.684 303.221 158.737V170.163C303.221 171.529 303.904 171.984 304.633 171.984C305.225 171.984 305.635 171.802 305.772 171.62L306 171.848ZM297.071 167.842V162.607C293.381 162.698 290.921 164.518 290.921 167.66C290.921 170.163 292.333 171.074 293.791 171.074C295.704 171.074 297.071 169.571 297.071 167.842Z" fill="#434142"/>
<path d="M178.944 91.1814C171.199 90.2254 164.411 93.7306 159.4 98.3739C164.958 95.1418 171.974 92.547 178.169 94.4135C183.727 95.9612 187.463 102.289 184.866 107.524C180.629 116.082 168.967 113.305 162.726 108.343C154.571 101.788 148.193 93.0478 136.895 89.8612C129.105 87.6762 119.129 90.8172 116.213 99.0112C112.887 107.023 118.901 116.219 127.055 117.402C134.8 118.358 141.588 114.807 146.599 110.21C141.041 113.442 134.025 116.037 127.83 114.125C122.272 112.622 118.582 106.249 121.133 101.014C123.593 95.8702 129.971 94.3679 135.255 96.0523C147.829 99.7851 155.437 115.672 169.104 118.54C176.711 120.816 186.916 117.721 189.786 109.481C193.112 101.515 187.098 92.2739 178.944 91.0903V91.1814Z" fill="#C3AA45"/>
<path d="M152.931 75.7041C137.989 73.2459 138.399 48.7548 152.931 48.7548C167.464 48.7548 167.874 73.2459 152.931 75.7041C156.758 76.5235 161.131 74.9757 164.184 72.0168C174.57 61.9108 168.603 41.7899 152.931 41.9265C130.882 41.972 131.292 77.4795 152.931 75.7041Z" fill="#C3AA45"/>
<path d="M188.192 52.7604C174.981 87.676 131.93 88.9052 117.854 53.944C118.582 62.2745 122.136 70.8783 128.741 76.9783C150.381 97.6455 187.008 82.2134 188.192 52.7148V52.7604Z" fill="#C3AA45"/>
<path d="M38.0397 87.4944H37.9941L40.4997 79.4824L42.2309 80.0287C41.912 80.3929 41.6386 80.575 41.502 80.7115C41.3653 80.8481 41.1375 81.1212 40.8186 81.4854C40.4997 81.8496 40.3175 82.2138 40.1808 82.5779L39.133 85.8556L44.2809 87.4944L44.8731 85.6279C45.1009 84.8996 45.192 83.9436 45.192 82.8056V82.7145L46.832 83.2153C46.1031 84.3533 45.6476 85.1727 45.4653 85.81L44.8731 87.6765L51.0232 89.5884L50.4309 91.4548H50.3854C49.5198 90.9085 48.7909 90.5899 48.1531 90.3623L40.4997 87.9496C39.9075 87.7675 39.0875 87.6309 38.0853 87.5399L38.0397 87.4944Z" fill="#434142"/>
<path d="M55.3515 77.2969C54.577 76.6596 53.8481 76.2044 53.3014 75.9313L46.058 72.4716C45.4658 72.1984 44.6913 71.9708 43.6891 71.7432H43.6436L44.6002 69.6492H44.6458C45.4202 70.2865 46.1491 70.7417 46.6958 71.0149L55.6704 75.2484L56.9459 72.6081C57.0826 72.335 57.1281 72.0163 57.1281 71.6522C57.1281 71.288 57.1281 70.9693 57.1281 70.7417C57.1281 70.5141 57.037 70.1955 56.9004 69.7858C56.8093 69.3761 56.7637 69.194 56.7181 69.1484L58.7682 70.0589L55.3515 77.2514H55.3059L55.3515 77.2969Z" fill="#434142"/>
<path d="M55.9887 61.5011C54.4398 60.4541 53.4376 59.0884 53.0275 57.4041C52.6175 55.7197 52.8909 54.2175 53.802 52.8973C54.7131 51.5772 56.0342 50.7578 57.7198 50.4847C59.4054 50.2115 61.0454 50.6212 62.6399 51.6682C64.2343 52.7153 65.2366 54.1264 65.6921 55.8108C66.1477 57.4951 65.9199 59.0429 65.0088 60.363C64.0977 61.6832 62.7765 62.5026 61.0454 62.7302C59.3143 62.9578 57.6287 62.5481 56.0342 61.5011H55.9887ZM56.9909 59.9988C58.4032 60.9548 59.8154 61.41 61.2276 61.4555C62.6399 61.4555 63.6877 61.0003 64.371 59.9988C65.0543 58.9973 65.0999 57.8138 64.5077 56.4936C63.9154 55.1735 62.9588 54.0809 61.5465 53.125C60.1798 52.2145 58.7676 51.7593 57.4009 51.7138C56.0342 51.6682 54.9409 52.2145 54.3031 53.216C53.6198 54.2175 53.5742 55.3555 54.1209 56.6757C54.6676 57.9503 55.6242 59.0884 56.9909 59.9988Z" fill="#434142"/>
<path d="M61.8652 42.1086L63.733 40.1511C63.9153 40.4242 64.0975 40.6519 64.3253 40.8795C64.6897 41.2437 65.1453 41.5623 65.6919 41.8354L73.7554 45.8869L69.5642 38.2847L69.2453 38.1026C68.4253 37.6929 67.5597 37.3742 66.6942 37.1922L68.562 35.2802C68.6986 35.5534 68.8809 35.781 69.1086 35.9631C69.4731 36.3272 69.9742 36.6459 70.5209 36.919L78.5843 40.9705L74.4843 33.5504C74.1654 32.9586 73.8009 32.5034 73.4365 32.0937C73.1176 31.775 72.7987 31.5474 72.4342 31.3653L73.7554 29.9541C73.9376 30.8645 74.302 31.684 74.712 32.5034L80.0421 42.1086L79.541 42.6093L79.2221 42.928L70.6576 38.6944L75.2587 46.9795L74.7576 47.4802L74.4387 47.7989L64.5075 42.8825C63.6419 42.4728 62.8219 42.1541 61.9563 41.972L61.8652 42.1086Z" fill="#434142"/>
<path d="M86.5568 35.2798C86.3745 35.0522 86.2834 34.7335 86.329 34.4604C86.329 34.1417 86.5112 33.9141 86.7845 33.6865C87.0123 33.5044 87.3312 33.4133 87.6046 33.4589C87.9234 33.4589 88.1512 33.641 88.379 33.8686C88.5612 34.0962 88.6524 34.3693 88.6068 34.688C88.6068 35.0066 88.4246 35.2798 88.1968 35.4619C87.969 35.6439 87.6501 35.735 87.3768 35.6895C87.0579 35.6895 86.8301 35.5074 86.6023 35.2798H86.5568Z" fill="#434142"/>
<path d="M105.326 9.96897L106.374 12.063H106.329C106.329 12.063 106.101 12.063 105.691 11.9264C105.281 11.7899 105.007 11.7443 104.78 11.6988C104.552 11.6533 104.233 11.6078 103.914 11.6078C103.55 11.6078 103.276 11.6533 103.003 11.7899L101.636 12.4272L106.01 21.3041C106.283 21.8958 106.739 22.5787 107.376 23.3526L105.326 24.3996C105.099 23.3526 104.825 22.5787 104.552 21.9869L100.224 13.11L98.8573 13.7929C98.6296 13.9294 98.3562 14.1115 98.174 14.3846C97.9462 14.6578 97.8096 14.8854 97.6729 15.113C97.5818 15.3406 97.4451 15.6138 97.3084 15.9779C97.1718 16.3421 97.0806 16.5242 97.0806 16.5697H97.0351L95.9873 14.4757L105.372 9.87793L105.326 9.96897Z" fill="#434142"/>
<path d="M113.025 6.96527L121.089 4.41602L121.635 6.19139H121.544C120.132 5.78169 119.084 5.69064 118.31 5.91825L114.984 6.96527L116.624 12.1093L118.811 11.4265C119.54 11.1989 120.36 10.7436 121.317 10.0608H121.362L121.863 11.6541H121.818C120.633 11.6541 119.677 11.7451 118.993 11.9727L116.807 12.6556L118.538 18.2093L121.909 17.1623C122.638 16.9347 123.458 16.2518 124.369 15.0683H124.46L125.007 16.7981L116.898 19.3474C116.807 18.3003 116.67 17.4809 116.488 16.8436L114.073 9.19587C113.891 8.60408 113.527 7.83019 113.025 6.96527Z" fill="#434142"/>
<path d="M130.929 15.3408C131.202 14.7035 131.475 13.702 131.749 12.2908L133.525 3.36837C133.571 3.09524 133.571 2.86763 133.525 2.64001C133.525 2.36688 133.389 2.09374 133.161 1.82061L135.074 1.50195L140.587 11.1982C141.133 12.2452 141.68 13.0191 142.136 13.5199L139.584 13.9751V13.884C139.584 13.884 139.584 13.5199 139.584 13.2923C139.493 12.746 139.265 12.1542 138.855 11.4258L137.899 9.69599L132.751 10.4699L132.478 11.8811C132.341 12.6549 132.295 13.3378 132.387 13.9296C132.432 14.2937 132.523 14.6124 132.705 14.9311V15.0221L130.929 15.2952V15.3408ZM137.58 9.14972L134.254 3.2318L132.979 9.87808L137.625 9.14972H137.58Z" fill="#434142"/>
<path d="M148.832 1.95746C149.971 0.682836 151.383 0.0455224 153.069 0C154.254 0 155.62 0.273134 157.078 0.819403V3.05H156.987C156.531 2.36716 155.939 1.77537 155.301 1.32015C154.618 0.864925 153.935 0.637314 153.115 0.637314C151.885 0.637314 150.837 1.27463 150.062 2.45821C149.288 3.64179 148.878 5.05299 148.923 6.73731C148.969 8.42164 149.379 9.83284 150.245 11.0164C151.11 12.2 152.158 12.7463 153.297 12.7463C153.98 12.7463 154.664 12.4731 155.347 12.0179C156.03 11.5172 156.577 10.9254 157.078 10.2425H157.169V12.4731C155.757 13.1104 154.436 13.4291 153.16 13.4746C151.475 13.4746 150.062 12.8828 148.878 11.6537C147.693 10.4246 147.101 8.83134 147.056 6.87388C147.056 4.91642 147.557 3.27761 148.696 2.00299L148.832 1.95746Z" fill="#434142"/>
<path d="M164.093 13.657C164.458 12.6555 164.686 11.8816 164.822 11.2443L166.052 3.32344C166.143 2.68613 166.143 1.86673 166.052 0.865234L168.285 1.13837C167.92 2.13986 167.692 2.91374 167.556 3.55105L167.009 7.1018L173.432 8.10329L173.979 4.55255C174.07 3.91523 174.07 3.09583 173.979 2.09434L176.211 2.36747C175.847 3.36896 175.619 4.14285 175.482 4.78016L174.252 12.7011C174.161 13.3384 174.161 14.1578 174.252 15.1593L172.02 14.8861C172.385 13.8846 172.612 13.1108 172.749 12.4734L173.296 8.74061L166.872 7.73911L166.28 11.4719C166.189 12.1093 166.189 12.9287 166.28 13.9302L164.048 13.657H164.093Z" fill="#434142"/>
<path d="M181.542 16.0693C181.633 15.7506 181.815 15.523 182.088 15.3865C182.362 15.2499 182.635 15.2044 182.954 15.2954C183.273 15.3865 183.5 15.5685 183.637 15.8417C183.774 16.1148 183.819 16.388 183.728 16.7066C183.637 16.9797 183.455 17.2074 183.182 17.3439C182.908 17.4805 182.589 17.526 182.316 17.435C181.997 17.3439 181.769 17.1618 181.633 16.8887C181.496 16.6156 181.45 16.3424 181.542 16.0238V16.0693Z" fill="#434142"/>
<path d="M206.141 12.7007C205.504 13.5201 205.048 14.203 204.775 14.7947L201.267 21.9873C200.994 22.5791 200.72 23.353 200.492 24.3089L198.442 23.353C199.08 22.5335 199.536 21.8507 199.809 21.2589L203.317 14.0209C203.59 13.4291 203.864 12.6552 204.091 11.6992L206.141 12.6552V12.7007Z" fill="#434142"/>
<path d="M206.643 27.6326C207.737 26.6766 208.511 25.9027 208.967 25.1743L212.611 19.6661C213.067 18.9833 213.431 18.0273 213.75 16.8438L215.39 17.8452L215.618 30.7736L219.627 24.6281C220.082 23.8997 220.538 22.8982 220.902 21.5326L222.588 22.5796C221.494 23.5355 220.72 24.3094 220.264 25.0378L214.98 33.0952L214.069 32.5035L213.841 19.0288L209.559 25.5385C209.103 26.2669 208.648 27.2684 208.283 28.6341L206.598 27.587L206.643 27.6326Z" fill="#434142"/>
<path d="M229.74 29.1797C230.742 29.1797 231.744 29.6349 232.746 30.5454C233.749 31.4558 234.523 32.6849 235.115 34.3237L233.703 35.8715H233.658C233.749 33.5498 233.248 31.911 232.154 30.9551C231.562 30.4088 230.97 30.1357 230.286 30.0901C229.603 30.0901 229.102 30.2722 228.692 30.7275C228.282 31.1827 228.145 31.82 228.282 32.5939C228.464 33.3677 228.874 34.3237 229.512 35.4163C230.15 36.5998 230.514 37.6469 230.56 38.5118C230.56 39.4222 230.286 40.1961 229.649 40.9245C228.874 41.7894 227.963 42.1991 226.915 42.1081C225.868 42.017 224.911 41.5618 224 40.7424C223.043 39.8775 222.223 38.5118 221.494 36.6909L222.997 35.0066H223.043C222.997 36.2357 223.043 37.2827 223.225 38.1021C223.408 38.9215 223.818 39.6498 224.455 40.2416C225.093 40.7879 225.731 41.1066 226.46 41.1521C227.143 41.1521 227.735 40.9245 228.236 40.3782C228.738 39.8319 228.92 39.1946 228.783 38.4207C228.646 37.6924 228.282 36.7819 227.69 35.7349C226.278 33.3222 226.095 31.5013 227.234 30.2722C227.872 29.5439 228.692 29.2252 229.74 29.2252V29.1797Z" fill="#434142"/>
<path d="M241.948 40.0146L245.046 43.7475C245.82 44.7035 246.185 45.7505 246.094 46.843C246.003 47.9355 245.547 48.846 244.681 49.5743C243.77 50.3482 242.723 50.6214 241.584 50.3937C240.445 50.1661 239.443 49.5743 238.623 48.5273L237.028 46.6154L235.069 48.2087C234.568 48.6184 234.021 49.2102 233.384 50.0296L231.926 48.2997C232.837 47.799 233.52 47.3893 234.021 46.9796L240.217 41.8811C240.718 41.4714 241.265 40.8796 241.903 40.0602L241.948 40.0146ZM242.723 41.8811L237.575 46.1146L239.078 47.89C239.67 48.6184 240.399 48.9826 241.265 49.0281C242.13 49.0281 242.905 48.8005 243.679 48.1632C244.408 47.5714 244.818 46.843 244.955 46.0236C245.091 45.2042 244.864 44.4303 244.317 43.7475L242.723 41.8355V41.8811Z" fill="#434142"/>
<path d="M253.611 55.4459C252.654 55.8101 251.926 56.1743 251.379 56.5384L244.637 60.9086C244.09 61.2728 243.498 61.819 242.769 62.5474H242.723L241.493 60.681H241.539C242.495 60.3168 243.224 59.9526 243.771 59.634L250.513 55.2638C251.06 54.8996 251.652 54.3534 252.381 53.625L253.611 55.4914V55.4459Z" fill="#434142"/>
<path d="M248.737 67.783L255.98 64.2778C256.572 64.0046 257.256 63.5494 258.03 62.9121H258.076L260.217 67.3278C260.764 68.4658 260.946 69.5129 260.718 70.4688C260.49 71.4248 259.898 72.1076 258.941 72.6084C258.076 73.0181 257.256 73.1091 256.436 72.836C255.661 72.5629 254.978 72.0166 254.431 71.1972C254.568 72.1076 254.34 72.9726 253.702 73.792C253.429 74.1106 253.11 74.5658 252.655 75.0666C252.245 75.6129 251.926 75.9315 251.789 76.1591C251.652 76.3867 251.47 76.6144 251.288 76.933C251.106 77.2517 250.969 77.5703 250.832 77.889H250.787L249.921 76.1591C250.103 75.7039 250.878 74.6569 252.29 73.0181C253.292 71.88 253.657 70.742 253.429 69.695L252.518 67.8285L249.375 69.3308C248.782 69.6039 248.099 70.0591 247.325 70.6964L246.322 68.6479H246.368C247.37 68.4203 248.145 68.1472 248.691 67.8741L248.737 67.783ZM253.11 67.4188L254.158 69.5584C254.568 70.4233 255.115 70.9696 255.798 71.2427C256.481 71.5158 257.256 71.4248 258.121 71.0151C258.987 70.6054 259.534 70.0591 259.716 69.3763C259.944 68.6935 259.852 67.9651 259.442 67.1457L258.349 64.8696L253.11 67.4188Z" fill="#434142"/>
<path d="M265.455 79.5732L268.006 87.6307L266.23 88.177C266.64 86.7203 266.776 85.6277 266.549 84.8994L265.501 81.5762L260.353 83.215L261.036 85.4001C261.264 86.1285 261.72 86.9479 262.403 87.9038L260.763 88.4956V88.4046C260.763 87.221 260.672 86.265 260.444 85.5822L259.761 83.3971L254.203 85.127L255.251 88.4956C255.479 89.224 256.162 90.0434 257.346 90.9538L255.57 91.5912L253.019 83.4426H253.064C254.066 83.3516 254.886 83.215 255.479 83.0329L263.132 80.6203C263.724 80.4382 264.499 80.074 265.364 79.5732H265.41H265.455Z" fill="#434142"/>
</g>
<defs>
<clipPath id="clip0_19_297">
<rect width="306" height="183" fill="white"/>
</clipPath>
</defs>
</svg>
