<svg width="39" height="40" viewBox="0 0 39 40" fill="none" xmlns="http://www.w3.org/2000/svg">
<path d="M32.6767 25.448C28.703 24.9534 25.2208 26.7667 22.64 29.1569C25.4871 27.4879 29.0921 26.1486 32.2875 27.117C35.1551 27.9 37.0601 31.1969 35.7287 33.8962C33.537 38.3264 27.5764 36.9046 24.3605 34.3289C20.182 30.929 16.9047 26.4164 11.108 24.768C7.11378 23.6553 1.993 25.2625 0.477255 29.5072C-1.22284 33.6489 1.84962 38.4088 6.04866 39.0269C10.0224 39.5215 13.5045 37.6876 16.0854 35.318C13.2382 36.987 9.6332 38.3264 6.45832 37.3579C3.59069 36.5749 1.70624 33.278 3.01716 30.5787C4.28711 27.9206 7.56441 27.1376 10.2682 28.003C16.7204 29.94 20.6326 38.1409 27.6583 39.6245C31.5706 40.799 36.7938 39.2124 38.2686 34.9471C39.9892 30.826 36.8962 26.0455 32.7176 25.448H32.6767Z" fill="#C3AA45"/>
<path d="M19.3422 17.4531C11.6611 16.1961 11.8659 3.5238 19.3422 3.5238C26.7981 3.5238 27.0029 16.1961 19.3422 17.4531C21.3086 17.8652 23.5617 17.0822 25.1185 15.5574C30.4646 10.3442 27.3921 -0.0615421 19.3422 0.000274197C8.03556 0.0208796 8.24039 18.3803 19.3422 17.4531Z" fill="#C3AA45"/>
<path d="M37.4288 5.60495C30.6489 23.6553 8.54764 24.2941 1.29663 6.22311C1.66533 10.5296 3.48832 14.9598 6.88851 18.1331C17.9903 28.8067 36.7938 20.8324 37.4083 5.60495H37.4288Z" fill="#C3AA45"/>
</svg>
